<svg xmlns="http://www.w3.org/2000/svg" height="750pt" version="1.1" viewBox="-6 0 750 750" width="750pt">
<g id="surface1">
<path d="M 687.5 0 L 312.5 0 C 284.886719 0 262.5 22.386719 262.5 50 L 262.5 250 L 287.5 250 L 287.5 50 C 287.5 36.191406 298.691406 25 312.5 25 L 687.5 25 C 701.308594 25 712.5 36.191406 712.5 50 L 712.5 275 L 500 275 L 500 300 L 712.5 300 L 712.5 312.5 C 712.5 326.308594 701.308594 337.5 687.5 337.5 L 500 337.5 L 500 362.5 L 540 362.5 L 559.433594 450 L 500 450 L 500 475 L 612.5 475 L 612.5 450 L 585 450 L 565.550781 362.5 L 687.5 362.5 C 715.113281 362.5 737.5 340.113281 737.5 312.5 L 737.5 50 C 737.5 22.386719 715.113281 0 687.5 0 Z M 687.5 0 " style=" stroke:none;fill-rule:nonzero;fill:rgb(0%,0%,0%);fill-opacity:1;" />
<path d="M 425 275 L 50 275 C 22.386719 275 0 297.386719 0 325 L 0 587.5 C 0 615.113281 22.386719 637.5 50 637.5 L 171.921875 637.5 L 152.5 725 L 125 725 L 125 750 L 350 750 L 350 725 L 322.5 725 L 303.050781 637.5 L 425 637.5 C 452.613281 637.5 475 615.113281 475 587.5 L 475 325 C 475 297.386719 452.613281 275 425 275 Z M 50 300 L 425 300 C 438.808594 300 450 311.191406 450 325 L 450 550 L 25 550 L 25 325 C 25 311.191406 36.191406 300 50 300 Z M 296.914062 725 L 178.085938 725 L 197.5 637.5 L 277.5 637.5 Z M 425 612.5 L 50 612.5 C 36.191406 612.5 25 601.308594 25 587.5 L 25 575 L 450 575 L 450 587.5 C 450 601.308594 438.808594 612.5 425 612.5 Z M 425 612.5 " style=" stroke:none;fill-rule:nonzero;fill:rgb(0%,0%,0%);fill-opacity:1;" />
<path d="M 112.5 225 L 137.5 225 L 137.5 250 L 112.5 250 Z M 112.5 225 " style=" stroke:none;fill-rule:nonzero;fill:rgb(0%,0%,0%);fill-opacity:1;" />
<path d="M 112.5 175 L 137.5 175 L 137.5 200 L 112.5 200 Z M 112.5 175 " style=" stroke:none;fill-rule:nonzero;fill:rgb(0%,0%,0%);fill-opacity:1;" />
<path d="M 112.5 125 L 137.5 125 L 137.5 150 L 112.5 150 Z M 112.5 125 " style=" stroke:none;fill-rule:nonzero;fill:rgb(0%,0%,0%);fill-opacity:1;" />
<path d="M 162.5 125 L 187.5 125 L 187.5 150 L 162.5 150 Z M 162.5 125 " style=" stroke:none;fill-rule:nonzero;fill:rgb(0%,0%,0%);fill-opacity:1;" />
<path d="M 212.5 125 L 237.5 125 L 237.5 150 L 212.5 150 Z M 212.5 125 " style=" stroke:none;fill-rule:nonzero;fill:rgb(0%,0%,0%);fill-opacity:1;" />
<path d="M 650 487.5 L 675 487.5 L 675 512.5 L 650 512.5 Z M 650 487.5 " style=" stroke:none;fill-rule:nonzero;fill:rgb(0%,0%,0%);fill-opacity:1;" />
<path d="M 650 437.5 L 675 437.5 L 675 462.5 L 650 462.5 Z M 650 437.5 " style=" stroke:none;fill-rule:nonzero;fill:rgb(0%,0%,0%);fill-opacity:1;" />
<path d="M 650 387.5 L 675 387.5 L 675 412.5 L 650 412.5 Z M 650 387.5 " style=" stroke:none;fill-rule:nonzero;fill:rgb(0%,0%,0%);fill-opacity:1;" />
<path d="M 650 537.5 L 675 537.5 L 675 562.5 L 650 562.5 Z M 650 537.5 " style=" stroke:none;fill-rule:nonzero;fill:rgb(0%,0%,0%);fill-opacity:1;" />
<path d="M 650 587.5 L 675 587.5 L 675 612.5 L 650 612.5 Z M 650 587.5 " style=" stroke:none;fill-rule:nonzero;fill:rgb(0%,0%,0%);fill-opacity:1;" />
<path d="M 600 587.5 L 625 587.5 L 625 612.5 L 600 612.5 Z M 600 587.5 " style=" stroke:none;fill-rule:nonzero;fill:rgb(0%,0%,0%);fill-opacity:1;" />
<path d="M 550 587.5 L 575 587.5 L 575 612.5 L 550 612.5 Z M 550 587.5 " style=" stroke:none;fill-rule:nonzero;fill:rgb(0%,0%,0%);fill-opacity:1;" />
<path d="M 500 587.5 L 525 587.5 L 525 612.5 L 500 612.5 Z M 500 587.5 " style=" stroke:none;fill-rule:nonzero;fill:rgb(0%,0%,0%);fill-opacity:1;" />
<path d="M 100 525 L 300 525 C 313.808594 525 325 513.808594 325 500 L 325 475 L 375 475 C 388.808594 475 400 463.808594 400 450 L 400 350 C 400 336.191406 388.808594 325 375 325 L 175 325 C 161.191406 325 150 336.191406 150 350 L 150 375 L 100 375 C 86.191406 375 75 386.191406 75 400 L 75 500 C 75 513.808594 86.191406 525 100 525 Z M 175 350 L 375 350 L 375 450 L 325 450 L 325 400 C 325 386.191406 313.808594 375 300 375 L 175 375 Z M 100 400 L 300 400 L 300 500 L 100 500 Z M 100 400 " style=" stroke:none;fill-rule:nonzero;fill:rgb(0%,0%,0%);fill-opacity:1;" />
<path d="M 562.5 250 C 576.308594 250 587.5 238.808594 587.5 225 L 587.5 200 L 637.5 200 C 651.308594 200 662.5 188.808594 662.5 175 L 662.5 75 C 662.5 61.191406 651.308594 50 637.5 50 L 437.5 50 C 423.691406 50 412.5 61.191406 412.5 75 L 412.5 100 L 362.5 100 C 348.691406 100 337.5 111.191406 337.5 125 L 337.5 225 C 337.5 238.808594 348.691406 250 362.5 250 Z M 437.5 75 L 637.5 75 L 637.5 175 L 587.5 175 L 587.5 125 C 587.5 111.191406 576.308594 100 562.5 100 L 437.5 100 Z M 362.5 125 L 562.5 125 L 562.5 225 L 362.5 225 Z M 362.5 125 " style=" stroke:none;fill-rule:nonzero;fill:rgb(0%,0%,0%);fill-opacity:1;" />
</g>
</svg>