<?xml version="1.0" encoding="iso-8859-1"?>
<!-- Generator: Adobe Illustrator 21.0.0, SVG Export Plug-In . SVG Version: 6.00 Build 0)  -->
<svg xmlns="http://www.w3.org/2000/svg" xmlns:xlink="http://www.w3.org/1999/xlink" version="1.1" id="Capa_1" x="0px" y="0px" viewBox="0 0 512 512" style="enable-background:new 0 0 512 512;" xml:space="preserve" width="512" height="512">
<g>
	<g>
		<path style="fill:#00C0F1;" d="M493.091,108.401C423.791,57.7,342.1,31,256,31S88.206,57.7,18.906,108.401    c-21.125,15.088-25.577,45.481-8.101,66c15.41,17.464,41.332,20.841,60,7.2C125.105,142,188.8,121,256,121    s130.892,21,185.192,60.601c18.3,13.499,44.7,10.499,60-7.2C518.116,154.967,514.977,124.031,493.091,108.401z"/>
	</g>
	<g>
		<path style="fill:#00C0F1;" d="M433.299,230.2c-1.5-12.9-8.699-24.3-19.199-31.201C367,167.8,311.499,151.901,256,151.901    S145,167.8,97.899,198.999c-22.144,14.555-26.256,46.211-8.699,66.901c14.747,17.289,40.875,19.988,58.801,7.8    c32.098-21.301,70.199-32.1,107.999-32.1s75.901,10.8,107.999,32.1c18.9,12.599,44.101,9.3,58.801-7.8    C431.201,256,435.099,242.8,433.299,230.2z"/>
	</g>
	<g>
		<path style="fill:#00C0F1;" d="M353.2,319.6c-2.699-13.801-11.4-25.199-23.699-31.5C306.4,276.7,281.201,271,256,271    s-50.4,5.7-73.5,17.1c-12.299,6.301-21,17.699-23.699,31.5c-2.829,14.126,1.148,27.746,9.901,38.401    c8.699,9.899,20.999,15.298,33.6,15.298c7.2,0,14.399-1.8,21.299-5.099C233.8,363.401,244.9,361,256,361s22.2,2.401,32.1,7.2    c19.499,9.3,41.7,5.4,55.199-10.199C352.301,347.199,355.901,333.401,353.2,319.6z"/>
	</g>
	<g>
		<path style="fill:#00C0F1;" d="M256,391c-24.901,0-45,20.099-45,45s20.099,45,45,45s45-20.099,45-45S280.901,391,256,391z"/>
	</g>
	<path style="fill:#009AE4;" d="M301,436c0,24.901-20.099,45-45,45v-90C280.901,391,301,411.099,301,436z"/>
	<path style="fill:#009AE4;" d="M353.2,319.6c2.701,13.801-0.899,27.599-9.901,38.401c-13.499,15.599-35.7,19.499-55.199,10.199   c-9.901-4.799-21-7.2-32.1-7.2v-90c25.201,0,50.4,5.7,73.5,17.1C341.8,294.401,350.501,305.799,353.2,319.6z"/>
	<path style="fill:#009AE4;" d="M433.299,230.2c1.8,12.599-2.098,25.8-10.499,35.7c-14.7,17.1-39.901,20.4-58.801,7.8   c-32.098-21.301-70.199-32.1-107.999-32.1v-89.7c55.499,0,111,15.899,158.101,47.098C424.6,205.901,431.8,217.301,433.299,230.2z"/>
	<path style="fill:#009AE4;" d="M501.192,174.401c-15.3,17.699-41.7,20.698-60,7.2C386.892,142,323.2,121,256,121V31   c86.1,0,167.791,26.7,237.091,77.401C514.997,124.046,518.099,154.987,501.192,174.401z"/>
</g>















</svg>
