<?xml version="1.0" encoding="iso-8859-1"?>
<!-- Generator: Adobe Illustrator 21.0.0, SVG Export Plug-In . SVG Version: 6.00 Build 0)  -->
<svg xmlns="http://www.w3.org/2000/svg" xmlns:xlink="http://www.w3.org/1999/xlink" version="1.1" id="Capa_1" x="0px" y="0px" viewBox="0 0 512 512" style="enable-background:new 0 0 512 512;" xml:space="preserve" width="512" height="512">
<g>
	<path style="fill:#7C8388;" d="M60,46C27.001,46,0,73.001,0,106s27.001,60,60,60s60-27.001,60-60S92.999,46,60,46z"/>
	<path style="fill:#7C8388;" d="M60,196c-32.999,0-60,26.999-60,60c0,32.999,27.001,60,60,60s60-27.001,60-60   C120,222.999,92.999,196,60,196z"/>
	<path style="fill:#7C8388;" d="M60,346c-32.999,0-60,26.999-60,60c0,32.999,27.001,60,60,60s60-27.001,60-60   C120,372.999,92.999,346,60,346z"/>
	<path style="fill:#00C0F1;" d="M497,46H165c-8.401,0-15,6.599-15,15v90c0,8.399,6.599,15,15,15h332c8.401,0,15-6.601,15-15V61   C512,52.599,505.401,46,497,46z"/>
	<path style="fill:#00C0F1;" d="M497,196H165c-8.401,0-15,6.599-15,15v90c0,8.399,6.599,15,15,15h332c8.401,0,15-6.601,15-15v-90   C512,202.599,505.401,196,497,196z"/>
	<path style="fill:#00C0F1;" d="M497,346H165c-8.401,0-15,6.599-15,15v90c0,8.399,6.599,15,15,15h332c8.401,0,15-6.601,15-15v-90   C512,352.599,505.401,346,497,346z"/>
	<path style="fill:#575F64;" d="M120,406c0,32.999-27.001,60-60,60V346C92.999,346,120,372.999,120,406z"/>
	<path style="fill:#575F64;" d="M120,256c0,32.999-27.001,60-60,60V196C92.999,196,120,222.999,120,256z"/>
	<path style="fill:#575F64;" d="M60,166V46c32.999,0,60,27.001,60,60S92.999,166,60,166z"/>
	<path style="fill:#009AE4;" d="M512,61v90c0,8.399-6.599,15-15,15H331V46h166C505.401,46,512,52.599,512,61z"/>
	<path style="fill:#009AE4;" d="M512,211v90c0,8.399-6.599,15-15,15H331V196h166C505.401,196,512,202.599,512,211z"/>
	<path style="fill:#009AE4;" d="M512,361v90c0,8.399-6.599,15-15,15H331V346h166C505.401,346,512,352.599,512,361z"/>
</g>















</svg>
